<svg width="32" height="32" viewBox="0 0 32 32" fill="none" xmlns="http://www.w3.org/2000/svg">
<circle cx="16" cy="16" r="16" fill="#C4C4C4"/>
<circle cx="16" cy="16" r="16" fill="url(#paint0_linear)"/>
<path d="M14.2532 12.305C14.8703 12.305 15.462 12.5501 15.8984 12.9864C16.3347 13.4227 16.5798 14.0145 16.5798 14.6316C16.5798 15.2486 16.3347 15.8404 15.8984 16.2767C15.462 16.7131 14.8703 16.9582 14.2532 16.9582C13.6361 16.9582 13.0444 16.7131 12.608 16.2767C12.1717 15.8404 11.9266 15.2486 11.9266 14.6316C11.9266 14.0145 12.1717 13.4227 12.608 12.9864C13.0444 12.5501 13.6361 12.305 14.2532 12.305ZM14.2532 18.1215C15.8062 18.1215 18.9064 18.9009 18.9064 20.4481V21.6114H9.59998V20.4481C9.59998 18.9009 12.7002 18.1215 14.2532 18.1215ZM18.7668 12.5144C19.9418 13.794 19.9418 15.568 18.7668 16.743L17.7896 15.76C18.2782 15.0736 18.2782 14.1837 17.7896 13.4973L18.7668 12.5144ZM20.6921 10.56C22.978 12.9157 22.9605 16.4405 20.6921 18.7031L19.744 17.755C21.3552 15.9054 21.3552 13.2647 19.744 11.5081L20.6921 10.56Z" fill="white"/>
<defs>
<linearGradient id="paint0_linear" x1="0" y1="16" x2="32" y2="16" gradientUnits="userSpaceOnUse">
<stop stop-color="#0B58ED"/>
<stop offset="0.999342" stop-color="#3431DC" stop-opacity="0.309668"/>
<stop offset="1" stop-color="#4B1DD4"/>
</linearGradient>
</defs>
</svg>
