<svg width="40" height="40" viewBox="0 0 40 40" fill="none" xmlns="http://www.w3.org/2000/svg">
<circle cx="20" cy="20" r="20" fill="url(#paint0_linear)"/>
<path d="M17.8165 15.3812C18.5878 15.3812 19.3276 15.6876 19.873 16.233C20.4184 16.7784 20.7248 17.5182 20.7248 18.2895C20.7248 19.0608 20.4184 19.8005 19.873 20.3459C19.3276 20.8913 18.5878 21.1977 17.8165 21.1977C17.0452 21.1977 16.3055 20.8913 15.7601 20.3459C15.2147 19.8005 14.9083 19.0608 14.9083 18.2895C14.9083 17.5182 15.2147 16.7784 15.7601 16.233C16.3055 15.6876 17.0452 15.3812 17.8165 15.3812ZM17.8165 22.6519C19.7578 22.6519 23.6331 23.6261 23.6331 25.5601V27.0143H12V25.5601C12 23.6261 15.8753 22.6519 17.8165 22.6519ZM23.4586 15.643C24.9272 17.2425 24.9272 19.46 23.4586 20.9287L22.2371 19.7C22.8478 18.842 22.8478 17.7296 22.2371 16.8717L23.4586 15.643ZM25.8651 13.2C28.7225 16.1446 28.7007 20.5506 25.8651 23.3789L24.68 22.1938C26.694 19.8817 26.694 16.5809 24.68 14.3851L25.8651 13.2Z" fill="white"/>
<defs>
<linearGradient id="paint0_linear" x1="0" y1="20" x2="40" y2="20" gradientUnits="userSpaceOnUse">
<stop stop-color="#0B58ED"/>
<stop offset="1" stop-color="#4B1DD4"/>
</linearGradient>
</defs>
</svg>
