<svg width="36" height="35" viewBox="0 0 36 35" fill="none" xmlns="http://www.w3.org/2000/svg">
<circle cx="17.8711" cy="17.5" r="17.5" fill="url(#paint0_linear)"/>
<path d="M15.9606 13.4586C16.6355 13.4586 17.2827 13.7267 17.76 14.2039C18.2372 14.6812 18.5053 15.3284 18.5053 16.0033C18.5053 16.6782 18.2372 17.3255 17.76 17.8027C17.2827 18.28 16.6355 18.5481 15.9606 18.5481C15.2857 18.5481 14.6384 18.28 14.1612 17.8027C13.6839 17.3255 13.4158 16.6782 13.4158 16.0033C13.4158 15.3284 13.6839 14.6812 14.1612 14.2039C14.6384 13.7267 15.2857 13.4586 15.9606 13.4586ZM15.9606 19.8204C17.6592 19.8204 21.05 20.6729 21.05 22.3652V23.6375H10.8711V22.3652C10.8711 20.6729 14.2619 19.8204 15.9606 19.8204ZM20.8973 13.6876C22.1824 15.0872 22.1824 17.0276 20.8973 18.3127L19.8285 17.2375C20.3629 16.4868 20.3629 15.5135 19.8285 14.7628L20.8973 13.6876ZM23.0031 11.55C25.5033 14.1266 25.4842 17.9819 23.0031 20.4566L21.9661 19.4196C23.7283 17.3966 23.7283 14.5083 21.9661 12.587L23.0031 11.55Z" fill="white"/>
<defs>
<linearGradient id="paint0_linear" x1="0.371094" y1="17.5" x2="35.3711" y2="17.5" gradientUnits="userSpaceOnUse">
<stop stop-color="#0B58ED"/>
<stop offset="1" stop-color="#4B1DD4"/>
</linearGradient>
</defs>
</svg>
